<svg class="plot-2e745f599fc9c" fill="currentColor" font-family="system-ui, sans-serif" font-size="10" text-anchor="middle" width="640" height="280" viewBox="0 0 640 280" xmlns="http://www.w3.org/2000/svg" xmlns:xlink="http://www.w3.org/1999/xlink"><style>
        .plot-2e745f599fc9c {
          display: block;
          background: white;
          height: auto;
          height: intrinsic;
          max-width: 100%;
        }
        .plot-2e745f599fc9c text,
        .plot-2e745f599fc9c tspan {
          white-space: pre;
        }
      </style><g aria-label="fy-axis" aria-description="Brand" transform="translate(100,0)" fill="none" text-anchor="end"><g class="tick" opacity="1" transform="translate(0,35.5)"><line stroke="currentColor" x2="0"/><text fill="currentColor" x="-9" dy="0.32em">Amazfit</text></g><g class="tick" opacity="1" transform="translate(0,55.5)"><line stroke="currentColor" x2="0"/><text fill="currentColor" x="-9" dy="0.32em">Boat</text></g><g class="tick" opacity="1" transform="translate(0,75.5)"><line stroke="currentColor" x2="0"/><text fill="currentColor" x="-9" dy="0.32em">Crossbeats</text></g><g class="tick" opacity="1" transform="translate(0,95.5)"><line stroke="currentColor" x2="0"/><text fill="currentColor" x="-9" dy="0.32em">Fire Boltt</text></g><g class="tick" opacity="1" transform="translate(0,115.5)"><line stroke="currentColor" x2="0"/><text fill="currentColor" x="-9" dy="0.32em">IZI</text></g><g class="tick" opacity="1" transform="translate(0,135.5)"><line stroke="currentColor" x2="0"/><text fill="currentColor" x="-9" dy="0.32em">Maxima</text></g><g class="tick" opacity="1" transform="translate(0,155.5)"><line stroke="currentColor" x2="0"/><text fill="currentColor" x="-9" dy="0.32em">Noise</text></g><g class="tick" opacity="1" transform="translate(0,175.5)"><line stroke="currentColor" x2="0"/><text fill="currentColor" x="-9" dy="0.32em">Realme</text></g><g class="tick" opacity="1" transform="translate(0,195.5)"><line stroke="currentColor" x2="0"/><text fill="currentColor" x="-9" dy="0.32em">Tagg</text></g><g class="tick" opacity="1" transform="translate(0,215.5)"><line stroke="currentColor" x2="0"/><text fill="currentColor" x="-9" dy="0.32em">Tokidis</text></g><g class="tick" opacity="1" transform="translate(0,235.5)"><line stroke="currentColor" x2="0"/><text fill="currentColor" x="-9" dy="0.32em">Zebronic</text></g><text fill="currentColor" transform="translate(-100,135) rotate(-90)" dy="0.75em" text-anchor="middle">Brand</text></g><g aria-label="x-axis" aria-description="Price in Rupees →" transform="translate(0,250)" fill="none" text-anchor="middle" font-variant="tabular-nums"><g class="tick" opacity="1" transform="translate(131.5,0)"><line stroke="currentColor" y2="6"/><text fill="currentColor" y="9" dy="0.71em">1,000</text><path stroke="currentColor" stroke-opacity="0.1" d="M0,-225v20M0,-205v20M0,-185v20M0,-165v20M0,-145v20M0,-125v20M0,-105v20M0,-85v20M0,-65v20M0,-45v20M0,-25v20"/></g><g class="tick" opacity="1" transform="translate(200.5,0)"><line stroke="currentColor" y2="6"/><text fill="currentColor" y="9" dy="0.71em">2,000</text><path stroke="currentColor" stroke-opacity="0.1" d="M0,-225v20M0,-205v20M0,-185v20M0,-165v20M0,-145v20M0,-125v20M0,-105v20M0,-85v20M0,-65v20M0,-45v20M0,-25v20"/></g><g class="tick" opacity="1" transform="translate(270.5,0)"><line stroke="currentColor" y2="6"/><text fill="currentColor" y="9" dy="0.71em">3,000</text><path stroke="currentColor" stroke-opacity="0.1" d="M0,-225v20M0,-205v20M0,-185v20M0,-165v20M0,-145v20M0,-125v20M0,-105v20M0,-85v20M0,-65v20M0,-45v20M0,-25v20"/></g><g class="tick" opacity="1" transform="translate(340.5,0)"><line stroke="currentColor" y2="6"/><text fill="currentColor" y="9" dy="0.71em">4,000</text><path stroke="currentColor" stroke-opacity="0.1" d="M0,-225v20M0,-205v20M0,-185v20M0,-165v20M0,-145v20M0,-125v20M0,-105v20M0,-85v20M0,-65v20M0,-45v20M0,-25v20"/></g><g class="tick" opacity="1" transform="translate(410.5,0)"><line stroke="currentColor" y2="6"/><text fill="currentColor" y="9" dy="0.71em">5,000</text><path stroke="currentColor" stroke-opacity="0.1" d="M0,-225v20M0,-205v20M0,-185v20M0,-165v20M0,-145v20M0,-125v20M0,-105v20M0,-85v20M0,-65v20M0,-45v20M0,-25v20"/></g><g class="tick" opacity="1" transform="translate(480.5,0)"><line stroke="currentColor" y2="6"/><text fill="currentColor" y="9" dy="0.71em">6,000</text><path stroke="currentColor" stroke-opacity="0.1" d="M0,-225v20M0,-205v20M0,-185v20M0,-165v20M0,-145v20M0,-125v20M0,-105v20M0,-85v20M0,-65v20M0,-45v20M0,-25v20"/></g><g class="tick" opacity="1" transform="translate(550.5,0)"><line stroke="currentColor" y2="6"/><text fill="currentColor" y="9" dy="0.71em">7,000</text><path stroke="currentColor" stroke-opacity="0.1" d="M0,-225v20M0,-205v20M0,-185v20M0,-165v20M0,-145v20M0,-125v20M0,-105v20M0,-85v20M0,-65v20M0,-45v20M0,-25v20"/></g><text fill="currentColor" transform="translate(640,30)" dy="-0.32em" text-anchor="end">Price in Rupees →</text></g><g aria-label="facet" transform="translate(0,25)"><g aria-label="dot" transform="translate(0.5,0.5)"><circle cx="620" cy="10" r="3" fill="#4e79a7"/><circle cx="515" cy="10" r="3" fill="#4e79a7"/><circle cx="256" cy="10" r="3" fill="#4e79a7"/></g></g><g aria-label="facet" transform="translate(0,45)"><g aria-label="dot" transform="translate(0.5,0.5)"><circle cx="270" cy="10" r="3" fill="#f28e2c"/><circle cx="186" cy="10" r="3" fill="#f28e2c"/><circle cx="270" cy="10" r="3" fill="#f28e2c"/><circle cx="235" cy="10" r="3" fill="#f28e2c"/><circle cx="305" cy="10" r="3" fill="#f28e2c"/><circle cx="375" cy="10" r="3" fill="#f28e2c"/></g></g><g aria-label="facet" transform="translate(0,65)"><g aria-label="dot" transform="translate(0.5,0.5)"><circle cx="200" cy="10" r="3" fill="#e15759"/></g></g><g aria-label="facet" transform="translate(0,85)"><g aria-label="dot" transform="translate(0.5,0.5)"><circle cx="480" cy="10" r="3" fill="#76b7b2"/><circle cx="186" cy="10" r="3" fill="#76b7b2"/><circle cx="200" cy="10" r="3" fill="#76b7b2"/><circle cx="305" cy="10" r="3" fill="#76b7b2"/><circle cx="165" cy="10" r="3" fill="#76b7b2"/><circle cx="270" cy="10" r="3" fill="#76b7b2"/><circle cx="263" cy="10" r="3" fill="#76b7b2"/><circle cx="305" cy="10" r="3" fill="#76b7b2"/></g></g><g aria-label="facet" transform="translate(0,105)"><g aria-label="dot" transform="translate(0.5,0.5)"><circle cx="235" cy="10" r="3" fill="#59a14f"/></g></g><g aria-label="facet" transform="translate(0,125)"><g aria-label="dot" transform="translate(0.5,0.5)"><circle cx="270" cy="10" r="3" fill="#edc949"/></g></g><g aria-label="facet" transform="translate(0,145)"><g aria-label="dot" transform="translate(0.5,0.5)"><circle cx="179" cy="10" r="3" fill="#af7aa1"/><circle cx="256" cy="10" r="3" fill="#af7aa1"/><circle cx="200" cy="10" r="3" fill="#af7aa1"/></g></g><g aria-label="facet" transform="translate(0,165)"><g aria-label="dot" transform="translate(0.5,0.5)"><circle cx="396" cy="10" r="3" fill="#ff9da7"/></g></g><g aria-label="facet" transform="translate(0,185)"><g aria-label="dot" transform="translate(0.5,0.5)"><circle cx="165" cy="10" r="3" fill="#9c755f"/></g></g><g aria-label="facet" transform="translate(0,205)"><g aria-label="dot" transform="translate(0.5,0.5)"><circle cx="120" cy="10" r="3" fill="#bab0ab"/></g></g><g aria-label="facet" transform="translate(0,225)"><g aria-label="dot" transform="translate(0.5,0.5)"><circle cx="158" cy="10" r="3" fill="#4e79a7"/><circle cx="256" cy="10" r="3" fill="#4e79a7"/><circle cx="172" cy="10" r="3" fill="#4e79a7"/><circle cx="165" cy="10" r="3" fill="#4e79a7"/><circle cx="186" cy="10" r="3" fill="#4e79a7"/><circle cx="214" cy="10" r="3" fill="#4e79a7"/><circle cx="246" cy="10" r="3" fill="#4e79a7"/></g></g></svg>