<svg class="plot-6f81adcae044e" fill="currentColor" font-family="system-ui, sans-serif" font-size="10" text-anchor="middle" width="640" height="400" viewBox="0 0 640 400" xmlns="http://www.w3.org/2000/svg" xmlns:xlink="http://www.w3.org/1999/xlink"><style>
        .plot-6f81adcae044e {
          display: block;
          background: white;
          height: auto;
          height: intrinsic;
          max-width: 100%;
        }
        .plot-6f81adcae044e text,
        .plot-6f81adcae044e tspan {
          white-space: pre;
        }
      </style><g aria-label="y-axis" aria-description="↑ rank" transform="translate(40,0)" fill="none" text-anchor="end" font-variant="tabular-nums"><g class="tick" opacity="1" transform="translate(0,380.5)"><line stroke="currentColor" x2="-6"/><line stroke="currentColor" x2="599" stroke-opacity="0.1"/><text fill="currentColor" x="-9" dy="0.32em">0</text></g><g class="tick" opacity="1" transform="translate(0,344.5)"><line stroke="currentColor" x2="-6"/><line stroke="currentColor" x2="599" stroke-opacity="0.1"/><text fill="currentColor" x="-9" dy="0.32em">2</text></g><g class="tick" opacity="1" transform="translate(0,308.5)"><line stroke="currentColor" x2="-6"/><line stroke="currentColor" x2="599" stroke-opacity="0.1"/><text fill="currentColor" x="-9" dy="0.32em">4</text></g><g class="tick" opacity="1" transform="translate(0,272.5)"><line stroke="currentColor" x2="-6"/><line stroke="currentColor" x2="599" stroke-opacity="0.1"/><text fill="currentColor" x="-9" dy="0.32em">6</text></g><g class="tick" opacity="1" transform="translate(0,236.5)"><line stroke="currentColor" x2="-6"/><line stroke="currentColor" x2="599" stroke-opacity="0.1"/><text fill="currentColor" x="-9" dy="0.32em">8</text></g><g class="tick" opacity="1" transform="translate(0,200.5)"><line stroke="currentColor" x2="-6"/><line stroke="currentColor" x2="599" stroke-opacity="0.1"/><text fill="currentColor" x="-9" dy="0.32em">10</text></g><g class="tick" opacity="1" transform="translate(0,164.5)"><line stroke="currentColor" x2="-6"/><line stroke="currentColor" x2="599" stroke-opacity="0.1"/><text fill="currentColor" x="-9" dy="0.32em">12</text></g><g class="tick" opacity="1" transform="translate(0,128.5)"><line stroke="currentColor" x2="-6"/><line stroke="currentColor" x2="599" stroke-opacity="0.1"/><text fill="currentColor" x="-9" dy="0.32em">14</text></g><g class="tick" opacity="1" transform="translate(0,92.49999999999999)"><line stroke="currentColor" x2="-6"/><line stroke="currentColor" x2="599" stroke-opacity="0.1"/><text fill="currentColor" x="-9" dy="0.32em">16</text></g><g class="tick" opacity="1" transform="translate(0,56.49999999999999)"><line stroke="currentColor" x2="-6"/><line stroke="currentColor" x2="599" stroke-opacity="0.1"/><text fill="currentColor" x="-9" dy="0.32em">18</text></g><g class="tick" opacity="1" transform="translate(0,20.5)"><line stroke="currentColor" x2="-6"/><line stroke="currentColor" x2="599" stroke-opacity="0.1"/><text fill="currentColor" x="-9" dy="0.32em">20</text></g><text fill="currentColor" font-variant="normal" transform="translate(-40,20)" dy="-1em" text-anchor="start">↑ rank</text></g><g aria-label="dot" transform="translate(0.5,0.5)"><path transform="translate(146,362)" d="M4.5,0A4.5,4.5,0,1,1,-4.5,0A4.5,4.5,0,1,1,4.5,0" fill="#af7aa1"/><path transform="translate(146,344)" d="M4.5,0A4.5,4.5,0,1,1,-4.5,0A4.5,4.5,0,1,1,4.5,0" fill="#f28e2c"/><path transform="translate(146,326)" d="M4.5,0A4.5,4.5,0,1,1,-4.5,0A4.5,4.5,0,1,1,4.5,0" fill="#4e79a7"/><path transform="translate(146,308)" d="M4.5,0A4.5,4.5,0,1,1,-4.5,0A4.5,4.5,0,1,1,4.5,0" fill="#4e79a7"/><path transform="translate(146,290)" d="M4.5,0A4.5,4.5,0,1,1,-4.5,0A4.5,4.5,0,1,1,4.5,0" fill="#af7aa1"/><path transform="translate(146,272)" d="M4.5,0A4.5,4.5,0,1,1,-4.5,0A4.5,4.5,0,1,1,4.5,0" fill="#76b7b2"/><path transform="translate(146,254)" d="M4.5,0A4.5,4.5,0,1,1,-4.5,0A4.5,4.5,0,1,1,4.5,0" fill="#4e79a7"/><path transform="translate(146,236)" d="M4.5,0A4.5,4.5,0,1,1,-4.5,0A4.5,4.5,0,1,1,4.5,0" fill="#4e79a7"/><path transform="translate(146,218.00000000000003)" d="M4.5,0A4.5,4.5,0,1,1,-4.5,0A4.5,4.5,0,1,1,4.5,0" fill="#4e79a7"/><path transform="translate(146,200)" d="M4.5,0A4.5,4.5,0,1,1,-4.5,0A4.5,4.5,0,1,1,4.5,0" fill="#76b7b2"/><path transform="translate(146,181.99999999999997)" d="M4.5,0A4.5,4.5,0,1,1,-4.5,0A4.5,4.5,0,1,1,4.5,0" fill="#76b7b2"/><path transform="translate(146,164)" d="M4.5,0A4.5,4.5,0,1,1,-4.5,0A4.5,4.5,0,1,1,4.5,0" fill="#76b7b2"/><path transform="translate(146,146)" d="M4.5,0A4.5,4.5,0,1,1,-4.5,0A4.5,4.5,0,1,1,4.5,0" fill="#76b7b2"/><path transform="translate(146,128)" d="M4.5,0A4.5,4.5,0,1,1,-4.5,0A4.5,4.5,0,1,1,4.5,0" fill="#4e79a7"/><path transform="translate(146,110)" d="M4.5,0A4.5,4.5,0,1,1,-4.5,0A4.5,4.5,0,1,1,4.5,0" fill="#4e79a7"/><path transform="translate(146,91.99999999999999)" d="M4.5,0A4.5,4.5,0,1,1,-4.5,0A4.5,4.5,0,1,1,4.5,0" fill="#af7aa1"/><path transform="translate(146,74)" d="M4.5,0A4.5,4.5,0,1,1,-4.5,0A4.5,4.5,0,1,1,4.5,0" fill="#9c755f"/><path transform="translate(146,55.99999999999999)" d="M4.5,0A4.5,4.5,0,1,1,-4.5,0A4.5,4.5,0,1,1,4.5,0" fill="#e15759"/><path transform="translate(146,38.000000000000014)" d="M4.5,0A4.5,4.5,0,1,1,-4.5,0A4.5,4.5,0,1,1,4.5,0" fill="#59a14f"/><path transform="translate(146,20)" d="M4.5,0A4.5,4.5,0,1,1,-4.5,0A4.5,4.5,0,1,1,4.5,0" fill="#edc949"/><path transform="translate(340,362)" d="M-5.350491851768115,-1.7834972839227048L-1.7834972839227048,-1.7834972839227048L-1.7834972839227048,-5.350491851768115L1.7834972839227048,-5.350491851768115L1.7834972839227048,-1.7834972839227048L5.350491851768115,-1.7834972839227048L5.350491851768115,1.7834972839227048L1.7834972839227048,1.7834972839227048L1.7834972839227048,5.350491851768115L-1.7834972839227048,5.350491851768115L-1.7834972839227048,1.7834972839227048L-5.350491851768115,1.7834972839227048Z" fill="#76b7b2"/><path transform="translate(340,344)" d="M-5.350491851768115,-1.7834972839227048L-1.7834972839227048,-1.7834972839227048L-1.7834972839227048,-5.350491851768115L1.7834972839227048,-5.350491851768115L1.7834972839227048,-1.7834972839227048L5.350491851768115,-1.7834972839227048L5.350491851768115,1.7834972839227048L1.7834972839227048,1.7834972839227048L1.7834972839227048,5.350491851768115L-1.7834972839227048,5.350491851768115L-1.7834972839227048,1.7834972839227048L-5.350491851768115,1.7834972839227048Z" fill="#76b7b2"/><path transform="translate(340,326)" d="M-5.350491851768115,-1.7834972839227048L-1.7834972839227048,-1.7834972839227048L-1.7834972839227048,-5.350491851768115L1.7834972839227048,-5.350491851768115L1.7834972839227048,-1.7834972839227048L5.350491851768115,-1.7834972839227048L5.350491851768115,1.7834972839227048L1.7834972839227048,1.7834972839227048L1.7834972839227048,5.350491851768115L-1.7834972839227048,5.350491851768115L-1.7834972839227048,1.7834972839227048L-5.350491851768115,1.7834972839227048Z" fill="#4e79a7"/><path transform="translate(340,308)" d="M-5.350491851768115,-1.7834972839227048L-1.7834972839227048,-1.7834972839227048L-1.7834972839227048,-5.350491851768115L1.7834972839227048,-5.350491851768115L1.7834972839227048,-1.7834972839227048L5.350491851768115,-1.7834972839227048L5.350491851768115,1.7834972839227048L1.7834972839227048,1.7834972839227048L1.7834972839227048,5.350491851768115L-1.7834972839227048,5.350491851768115L-1.7834972839227048,1.7834972839227048L-5.350491851768115,1.7834972839227048Z" fill="#4e79a7"/><path transform="translate(340,290)" d="M-5.350491851768115,-1.7834972839227048L-1.7834972839227048,-1.7834972839227048L-1.7834972839227048,-5.350491851768115L1.7834972839227048,-5.350491851768115L1.7834972839227048,-1.7834972839227048L5.350491851768115,-1.7834972839227048L5.350491851768115,1.7834972839227048L1.7834972839227048,1.7834972839227048L1.7834972839227048,5.350491851768115L-1.7834972839227048,5.350491851768115L-1.7834972839227048,1.7834972839227048L-5.350491851768115,1.7834972839227048Z" fill="#f28e2c"/><path transform="translate(340,272)" d="M-5.350491851768115,-1.7834972839227048L-1.7834972839227048,-1.7834972839227048L-1.7834972839227048,-5.350491851768115L1.7834972839227048,-5.350491851768115L1.7834972839227048,-1.7834972839227048L5.350491851768115,-1.7834972839227048L5.350491851768115,1.7834972839227048L1.7834972839227048,1.7834972839227048L1.7834972839227048,5.350491851768115L-1.7834972839227048,5.350491851768115L-1.7834972839227048,1.7834972839227048L-5.350491851768115,1.7834972839227048Z" fill="#ff9da7"/><path transform="translate(534,362)" d="M0,-7.422543747841057L4.285407630887808,0L0,7.422543747841057L-4.285407630887808,0Z" fill="#4e79a7"/><path transform="translate(534,344)" d="M0,-7.422543747841057L4.285407630887808,0L0,7.422543747841057L-4.285407630887808,0Z" fill="#f28e2c"/><path transform="translate(534,326)" d="M0,-7.422543747841057L4.285407630887808,0L0,7.422543747841057L-4.285407630887808,0Z" fill="#76b7b2"/><path transform="translate(534,308)" d="M0,-7.422543747841057L4.285407630887808,0L0,7.422543747841057L-4.285407630887808,0Z" fill="#f28e2c"/><path transform="translate(534,290)" d="M0,-7.422543747841057L4.285407630887808,0L0,7.422543747841057L-4.285407630887808,0Z" fill="#f28e2c"/><path transform="translate(534,272)" d="M0,-7.422543747841057L4.285407630887808,0L0,7.422543747841057L-4.285407630887808,0Z" fill="#f28e2c"/><path transform="translate(534,254)" d="M0,-7.422543747841057L4.285407630887808,0L0,7.422543747841057L-4.285407630887808,0Z" fill="#bab0ab"/></g></svg>