<svg class="plot-874e4b941d60a" fill="currentColor" font-family="system-ui, sans-serif" font-size="10" text-anchor="middle" width="640" height="300" viewBox="0 0 640 300" xmlns="http://www.w3.org/2000/svg" xmlns:xlink="http://www.w3.org/1999/xlink"><style>
        .plot-874e4b941d60a {
          display: block;
          background: white;
          height: auto;
          height: intrinsic;
          max-width: 100%;
        }
        .plot-874e4b941d60a text,
        .plot-874e4b941d60a tspan {
          white-space: pre;
        }
      </style><g aria-label="y-axis" aria-description="Brand" transform="translate(70,0)" fill="none" text-anchor="end"><g class="tick" opacity="1" transform="translate(0,35.5)"><line stroke="currentColor" x2="-6"/><text fill="currentColor" x="-9" dy="0.32em">Amazfit</text></g><g class="tick" opacity="1" transform="translate(0,55.5)"><line stroke="currentColor" x2="-6"/><text fill="currentColor" x="-9" dy="0.32em">Boat</text></g><g class="tick" opacity="1" transform="translate(0,75.5)"><line stroke="currentColor" x2="-6"/><text fill="currentColor" x="-9" dy="0.32em">Crossbeats</text></g><g class="tick" opacity="1" transform="translate(0,95.5)"><line stroke="currentColor" x2="-6"/><text fill="currentColor" x="-9" dy="0.32em">Fire Boltt</text></g><g class="tick" opacity="1" transform="translate(0,115.5)"><line stroke="currentColor" x2="-6"/><text fill="currentColor" x="-9" dy="0.32em">IZI</text></g><g class="tick" opacity="1" transform="translate(0,135.5)"><line stroke="currentColor" x2="-6"/><text fill="currentColor" x="-9" dy="0.32em">Maxima</text></g><g class="tick" opacity="1" transform="translate(0,155.5)"><line stroke="currentColor" x2="-6"/><text fill="currentColor" x="-9" dy="0.32em">Noise</text></g><g class="tick" opacity="1" transform="translate(0,175.5)"><line stroke="currentColor" x2="-6"/><text fill="currentColor" x="-9" dy="0.32em">Realme</text></g><g class="tick" opacity="1" transform="translate(0,195.5)"><line stroke="currentColor" x2="-6"/><text fill="currentColor" x="-9" dy="0.32em">Tagg</text></g><g class="tick" opacity="1" transform="translate(0,215.5)"><line stroke="currentColor" x2="-6"/><text fill="currentColor" x="-9" dy="0.32em">Tokidis</text></g><g class="tick" opacity="1" transform="translate(0,235.5)"><line stroke="currentColor" x2="-6"/><text fill="currentColor" x="-9" dy="0.32em">Zebronic</text></g><g class="tick" opacity="1" transform="translate(0,255.5)"><line stroke="currentColor" x2="-6"/><text fill="currentColor" x="-9" dy="0.32em">0</text></g><text fill="currentColor" transform="translate(-70,145) rotate(-90)" dy="0.75em" text-anchor="middle">Brand</text></g><g aria-label="x-axis" aria-description="Price →" transform="translate(0,270)" fill="none" text-anchor="middle" font-variant="tabular-nums"><g class="tick" opacity="1" transform="translate(82.11538461538461,0)"><line stroke="currentColor" y2="6"/><text fill="currentColor" y="9" dy="0.71em">1,000</text></g><g class="tick" opacity="1" transform="translate(159.03846153846155,0)"><line stroke="currentColor" y2="6"/><text fill="currentColor" y="9" dy="0.71em">2,000</text></g><g class="tick" opacity="1" transform="translate(235.96153846153845,0)"><line stroke="currentColor" y2="6"/><text fill="currentColor" y="9" dy="0.71em">3,000</text></g><g class="tick" opacity="1" transform="translate(312.88461538461536,0)"><line stroke="currentColor" y2="6"/><text fill="currentColor" y="9" dy="0.71em">4,000</text></g><g class="tick" opacity="1" transform="translate(389.80769230769226,0)"><line stroke="currentColor" y2="6"/><text fill="currentColor" y="9" dy="0.71em">5,000</text></g><g class="tick" opacity="1" transform="translate(466.7307692307692,0)"><line stroke="currentColor" y2="6"/><text fill="currentColor" y="9" dy="0.71em">6,000</text></g><g class="tick" opacity="1" transform="translate(543.6538461538462,0)"><line stroke="currentColor" y2="6"/><text fill="currentColor" y="9" dy="0.71em">7,000</text></g><text fill="currentColor" transform="translate(640,30)" dy="-0.32em" text-anchor="end">Price →</text></g><g aria-label="dot" transform="translate(0.5,0.5)"><circle cx="135.3846153846154" cy="155" r="3" fill="#4e79a7"/><circle cx="235.3846153846154" cy="55" r="3" fill="#f28e2c"/><circle cx="112.3076923076923" cy="235" r="3" fill="#f28e2c"/><circle cx="466.1538461538462" cy="95" r="3" fill="#f28e2c"/><circle cx="219.99999999999997" cy="235" r="3" fill="#4e79a7"/><circle cx="127.69230769230771" cy="235" r="3" fill="#f28e2c"/><circle cx="219.99999999999997" cy="155" r="3" fill="#4e79a7"/><circle cx="143.07692307692307" cy="95" r="3" fill="#4e79a7"/><circle cx="120" cy="235" r="3" fill="#4e79a7"/><circle cx="158.46153846153845" cy="95" r="3" fill="#4e79a7"/><circle cx="143.07692307692307" cy="55" r="3" fill="#f28e2c"/><circle cx="143.07692307692307" cy="235" r="3" fill="#4e79a7"/><circle cx="273.8461538461538" cy="95" r="3" fill="#f28e2c"/><circle cx="173.84615384615384" cy="235" r="3" fill="#4e79a7"/><circle cx="235.3846153846154" cy="55" r="3" fill="#4e79a7"/><circle cx="208.46153846153848" cy="235" r="3" fill="#4e79a7"/><circle cx="120" cy="95" r="3" fill="#4e79a7"/><circle cx="620" cy="35" r="3" fill="#f28e2c"/><circle cx="235.3846153846154" cy="95" r="3" fill="#f28e2c"/><circle cx="227.69230769230768" cy="95" r="3" fill="#f28e2c"/><circle cx="273.8461538461538" cy="95" r="3" fill="#f28e2c"/><circle cx="504.6153846153846" cy="35" r="3" fill="#f28e2c"/><circle cx="219.99999999999997" cy="35" r="3" fill="#4e79a7"/><circle cx="196.92307692307693" cy="55" r="3" fill="#4e79a7"/><circle cx="273.8461538461538" cy="55" r="3" fill="#4e79a7"/><circle cx="350.76923076923083" cy="55" r="3" fill="#4e79a7"/><circle cx="158.46153846153845" cy="155" r="3" fill="#4e79a7"/><circle cx="373.8461538461538" cy="175" r="3" fill="#4e79a7"/><circle cx="120" cy="195" r="3" fill="#4e79a7"/><circle cx="158.46153846153845" cy="75" r="3" fill="#4e79a7"/><circle cx="70" cy="215" r="3" fill="#4e79a7"/><circle cx="196.92307692307693" cy="115" r="3" fill="#4e79a7"/><circle cx="235.3846153846154" cy="135" r="3" fill="#4e79a7"/></g><g aria-label="rule" stroke="currentColor" transform="translate(0,0.5)"><line x1="70" x2="620" y1="255" y2="255"/></g></svg>