<svg class="plot-051fe7a9d2925" fill="currentColor" font-family="system-ui, sans-serif" font-size="10" text-anchor="middle" width="640" height="60" viewBox="0 0 640 60" xmlns="http://www.w3.org/2000/svg" xmlns:xlink="http://www.w3.org/1999/xlink"><style>
        .plot-051fe7a9d2925 {
          display: block;
          background: white;
          height: auto;
          height: intrinsic;
          max-width: 100%;
        }
        .plot-051fe7a9d2925 text,
        .plot-051fe7a9d2925 tspan {
          white-space: pre;
        }
      </style><g aria-label="x-axis" aria-description="Price →" transform="translate(0,30)" fill="none" text-anchor="middle" font-variant="tabular-nums"><g class="tick" opacity="1" transform="translate(33.171328671328666,0)"><line stroke="currentColor" y2="6"/><text fill="currentColor" y="9" dy="0.71em">1,000</text></g><g class="tick" opacity="1" transform="translate(117.08741258741259,0)"><line stroke="currentColor" y2="6"/><text fill="currentColor" y="9" dy="0.71em">2,000</text></g><g class="tick" opacity="1" transform="translate(201.0034965034965,0)"><line stroke="currentColor" y2="6"/><text fill="currentColor" y="9" dy="0.71em">3,000</text></g><g class="tick" opacity="1" transform="translate(284.91958041958037,0)"><line stroke="currentColor" y2="6"/><text fill="currentColor" y="9" dy="0.71em">4,000</text></g><g class="tick" opacity="1" transform="translate(368.8356643356643,0)"><line stroke="currentColor" y2="6"/><text fill="currentColor" y="9" dy="0.71em">5,000</text></g><g class="tick" opacity="1" transform="translate(452.75174825174827,0)"><line stroke="currentColor" y2="6"/><text fill="currentColor" y="9" dy="0.71em">6,000</text></g><g class="tick" opacity="1" transform="translate(536.6678321678322,0)"><line stroke="currentColor" y2="6"/><text fill="currentColor" y="9" dy="0.71em">7,000</text></g><text fill="currentColor" transform="translate(640,30)" dy="-0.32em" text-anchor="end">Price →</text></g><g aria-label="dot" fill="White" stroke-width="1.5" transform="translate(0.5,0.5)"><circle cx="91.32867132867133" cy="26" r="3" stroke="#af7aa1"/><circle cx="200.41958041958043" cy="26" r="3" stroke="#f28e2c"/><circle cx="66.15384615384616" cy="26" r="3" stroke="#4e79a7"/><circle cx="452.1678321678322" cy="26" r="3" stroke="#76b7b2"/><circle cx="183.63636363636363" cy="26" r="3" stroke="#4e79a7"/><circle cx="82.93706293706295" cy="26" r="3" stroke="#4e79a7"/><circle cx="183.63636363636363" cy="19" r="3" stroke="#af7aa1"/><circle cx="99.7202797202797" cy="26" r="3" stroke="#76b7b2"/><circle cx="74.54545454545455" cy="26" r="3" stroke="#4e79a7"/><circle cx="116.5034965034965" cy="26" r="3" stroke="#76b7b2"/><circle cx="99.7202797202797" cy="19" r="3" stroke="#f28e2c"/><circle cx="99.7202797202797" cy="12" r="3" stroke="#4e79a7"/><circle cx="242.37762237762237" cy="26" r="3" stroke="#76b7b2"/><circle cx="133.28671328671328" cy="26" r="3" stroke="#4e79a7"/><circle cx="200.41958041958043" cy="19" r="3" stroke="#f28e2c"/><circle cx="171.04895104895107" cy="26" r="3" stroke="#4e79a7"/><circle cx="74.54545454545455" cy="19" r="3" stroke="#76b7b2"/><circle cx="620" cy="26" r="3" stroke="#4e79a7"/><circle cx="200.41958041958043" cy="12" r="3" stroke="#76b7b2"/><circle cx="192.02797202797203" cy="26" r="3" stroke="#76b7b2"/><circle cx="242.37762237762237" cy="19" r="3" stroke="#76b7b2"/><circle cx="494.12587412587413" cy="26" r="3" stroke="#4e79a7"/><circle cx="183.63636363636363" cy="12" r="3" stroke="#4e79a7"/><circle cx="158.46153846153848" cy="26" r="3" stroke="#f28e2c"/><circle cx="242.37762237762237" cy="12" r="3" stroke="#f28e2c"/><circle cx="326.29370629370635" cy="26" r="3" stroke="#f28e2c"/><circle cx="116.5034965034965" cy="19" r="3" stroke="#af7aa1"/><circle cx="351.46853146853147" cy="26" r="3" stroke="#ff9da7"/><circle cx="74.54545454545455" cy="12" r="3" stroke="#9c755f"/><circle cx="116.5034965034965" cy="12" r="3" stroke="#e15759"/><circle cx="20" cy="26" r="3" stroke="#bab0ab"/><circle cx="158.46153846153848" cy="19" r="3" stroke="#59a14f"/><circle cx="200.41958041958043" cy="5" r="3" stroke="#edc949"/></g></svg>