<svg class="plot-1f88ca48941b6" fill="currentColor" font-family="system-ui, sans-serif" font-size="10" text-anchor="middle" width="640" height="400" viewBox="0 0 640 400" xmlns="http://www.w3.org/2000/svg" xmlns:xlink="http://www.w3.org/1999/xlink"><style>
        .plot-1f88ca48941b6 {
          display: block;
          background: white;
          height: auto;
          height: intrinsic;
          max-width: 100%;
        }
        .plot-1f88ca48941b6 text,
        .plot-1f88ca48941b6 tspan {
          white-space: pre;
        }
      </style><g aria-label="y-axis" aria-description="↑ Rated_Count" transform="translate(70,0)" fill="none" text-anchor="end" font-variant="tabular-nums"><g class="tick" opacity="1" transform="translate(0,350.5)"><line stroke="currentColor" x2="-6"/><line stroke="currentColor" x2="550" stroke-opacity="0.1"/><text fill="currentColor" x="-9" dy="0.32em">1,000</text></g><g class="tick" opacity="1" transform="translate(0,317.5)"><line stroke="currentColor" x2="-6"/><line stroke="currentColor" x2="550" stroke-opacity="0.1"/><text fill="currentColor" x="-9" dy="0.32em">2,000</text></g><g class="tick" opacity="1" transform="translate(0,298.5)"><line stroke="currentColor" x2="-6"/><line stroke="currentColor" x2="550" stroke-opacity="0.1"/><text fill="currentColor" x="-9" dy="0.32em">3,000</text></g><g class="tick" opacity="1" transform="translate(0,284.5)"><line stroke="currentColor" x2="-6"/><line stroke="currentColor" x2="550" stroke-opacity="0.1"/><text fill="currentColor" x="-9" dy="0.32em"/></g><g class="tick" opacity="1" transform="translate(0,273.5)"><line stroke="currentColor" x2="-6"/><line stroke="currentColor" x2="550" stroke-opacity="0.1"/><text fill="currentColor" x="-9" dy="0.32em"/></g><g class="tick" opacity="1" transform="translate(0,264.5)"><line stroke="currentColor" x2="-6"/><line stroke="currentColor" x2="550" stroke-opacity="0.1"/><text fill="currentColor" x="-9" dy="0.32em"/></g><g class="tick" opacity="1" transform="translate(0,257.5)"><line stroke="currentColor" x2="-6"/><line stroke="currentColor" x2="550" stroke-opacity="0.1"/><text fill="currentColor" x="-9" dy="0.32em"/></g><g class="tick" opacity="1" transform="translate(0,251.5)"><line stroke="currentColor" x2="-6"/><line stroke="currentColor" x2="550" stroke-opacity="0.1"/><text fill="currentColor" x="-9" dy="0.32em"/></g><g class="tick" opacity="1" transform="translate(0,245.5)"><line stroke="currentColor" x2="-6"/><line stroke="currentColor" x2="550" stroke-opacity="0.1"/><text fill="currentColor" x="-9" dy="0.32em"/></g><g class="tick" opacity="1" transform="translate(0,240.5)"><line stroke="currentColor" x2="-6"/><line stroke="currentColor" x2="550" stroke-opacity="0.1"/><text fill="currentColor" x="-9" dy="0.32em">10,000</text></g><g class="tick" opacity="1" transform="translate(0,207.5)"><line stroke="currentColor" x2="-6"/><line stroke="currentColor" x2="550" stroke-opacity="0.1"/><text fill="currentColor" x="-9" dy="0.32em">20,000</text></g><g class="tick" opacity="1" transform="translate(0,188.5)"><line stroke="currentColor" x2="-6"/><line stroke="currentColor" x2="550" stroke-opacity="0.1"/><text fill="currentColor" x="-9" dy="0.32em">30,000</text></g><g class="tick" opacity="1" transform="translate(0,174.5)"><line stroke="currentColor" x2="-6"/><line stroke="currentColor" x2="550" stroke-opacity="0.1"/><text fill="currentColor" x="-9" dy="0.32em"/></g><g class="tick" opacity="1" transform="translate(0,163.5)"><line stroke="currentColor" x2="-6"/><line stroke="currentColor" x2="550" stroke-opacity="0.1"/><text fill="currentColor" x="-9" dy="0.32em"/></g><g class="tick" opacity="1" transform="translate(0,154.5)"><line stroke="currentColor" x2="-6"/><line stroke="currentColor" x2="550" stroke-opacity="0.1"/><text fill="currentColor" x="-9" dy="0.32em"/></g><g class="tick" opacity="1" transform="translate(0,147.5)"><line stroke="currentColor" x2="-6"/><line stroke="currentColor" x2="550" stroke-opacity="0.1"/><text fill="currentColor" x="-9" dy="0.32em"/></g><g class="tick" opacity="1" transform="translate(0,141.5)"><line stroke="currentColor" x2="-6"/><line stroke="currentColor" x2="550" stroke-opacity="0.1"/><text fill="currentColor" x="-9" dy="0.32em"/></g><g class="tick" opacity="1" transform="translate(0,135.5)"><line stroke="currentColor" x2="-6"/><line stroke="currentColor" x2="550" stroke-opacity="0.1"/><text fill="currentColor" x="-9" dy="0.32em"/></g><g class="tick" opacity="1" transform="translate(0,130.5)"><line stroke="currentColor" x2="-6"/><line stroke="currentColor" x2="550" stroke-opacity="0.1"/><text fill="currentColor" x="-9" dy="0.32em">100,000</text></g><g class="tick" opacity="1" transform="translate(0,97.5)"><line stroke="currentColor" x2="-6"/><line stroke="currentColor" x2="550" stroke-opacity="0.1"/><text fill="currentColor" x="-9" dy="0.32em">200,000</text></g><g class="tick" opacity="1" transform="translate(0,78.5)"><line stroke="currentColor" x2="-6"/><line stroke="currentColor" x2="550" stroke-opacity="0.1"/><text fill="currentColor" x="-9" dy="0.32em">300,000</text></g><g class="tick" opacity="1" transform="translate(0,64.5)"><line stroke="currentColor" x2="-6"/><line stroke="currentColor" x2="550" stroke-opacity="0.1"/><text fill="currentColor" x="-9" dy="0.32em"/></g><g class="tick" opacity="1" transform="translate(0,53.5)"><line stroke="currentColor" x2="-6"/><line stroke="currentColor" x2="550" stroke-opacity="0.1"/><text fill="currentColor" x="-9" dy="0.32em"/></g><g class="tick" opacity="1" transform="translate(0,44.5)"><line stroke="currentColor" x2="-6"/><line stroke="currentColor" x2="550" stroke-opacity="0.1"/><text fill="currentColor" x="-9" dy="0.32em"/></g><g class="tick" opacity="1" transform="translate(0,37.5)"><line stroke="currentColor" x2="-6"/><line stroke="currentColor" x2="550" stroke-opacity="0.1"/><text fill="currentColor" x="-9" dy="0.32em"/></g><g class="tick" opacity="1" transform="translate(0,31.5)"><line stroke="currentColor" x2="-6"/><line stroke="currentColor" x2="550" stroke-opacity="0.1"/><text fill="currentColor" x="-9" dy="0.32em"/></g><g class="tick" opacity="1" transform="translate(0,25.5)"><line stroke="currentColor" x2="-6"/><line stroke="currentColor" x2="550" stroke-opacity="0.1"/><text fill="currentColor" x="-9" dy="0.32em"/></g><g class="tick" opacity="1" transform="translate(0,20.5)"><line stroke="currentColor" x2="-6"/><line stroke="currentColor" x2="550" stroke-opacity="0.1"/><text fill="currentColor" x="-9" dy="0.32em">1,000,000</text></g><text fill="currentColor" font-variant="normal" transform="translate(-70,20)" dy="-1em" text-anchor="start">↑ Rated_Count</text></g><g aria-label="x-axis" aria-description="Rating →" transform="translate(0,350)" fill="none" text-anchor="middle" font-variant="tabular-nums"><g class="tick" opacity="1" transform="translate(151.5,0)"><line stroke="currentColor" y2="6"/><line stroke="currentColor" y2="-330" stroke-opacity="0.1"/><text fill="currentColor" y="9" dy="0.71em">3.4</text></g><g class="tick" opacity="1" transform="translate(221.5,0)"><line stroke="currentColor" y2="6"/><line stroke="currentColor" y2="-330" stroke-opacity="0.1"/><text fill="currentColor" y="9" dy="0.71em">3.6</text></g><g class="tick" opacity="1" transform="translate(290.5,0)"><line stroke="currentColor" y2="6"/><line stroke="currentColor" y2="-330" stroke-opacity="0.1"/><text fill="currentColor" y="9" dy="0.71em">3.8</text></g><g class="tick" opacity="1" transform="translate(360.5,0)"><line stroke="currentColor" y2="6"/><line stroke="currentColor" y2="-330" stroke-opacity="0.1"/><text fill="currentColor" y="9" dy="0.71em">4.0</text></g><g class="tick" opacity="1" transform="translate(429.5,0)"><line stroke="currentColor" y2="6"/><line stroke="currentColor" y2="-330" stroke-opacity="0.1"/><text fill="currentColor" y="9" dy="0.71em">4.2</text></g><g class="tick" opacity="1" transform="translate(498.5,0)"><line stroke="currentColor" y2="6"/><line stroke="currentColor" y2="-330" stroke-opacity="0.1"/><text fill="currentColor" y="9" dy="0.71em">4.4</text></g><g class="tick" opacity="1" transform="translate(568.5,0)"><line stroke="currentColor" y2="6"/><line stroke="currentColor" y2="-330" stroke-opacity="0.1"/><text fill="currentColor" y="9" dy="0.71em">4.6</text></g><text fill="currentColor" transform="translate(640,50)" dy="-0.32em" text-anchor="end">Rating →</text></g><g aria-label="dot" fill="none" stroke-width="1.5" transform="translate(0.5,0.5)"><circle cx="273" cy="240" r="10" stroke="#4e79a7"/><circle cx="446" cy="240" r="9.12870929175277" stroke="#76b7b2"/><circle cx="446" cy="240" r="7.0710678118654755" stroke="#f28e2c"/><circle cx="446" cy="188" r="5.773502691896258" stroke="#4e79a7"/><circle cx="273" cy="240" r="5.773502691896258" stroke="#76b7b2"/><circle cx="446" cy="188" r="5.773502691896258" stroke="#af7aa1"/><circle cx="446" cy="240" r="4.08248290463863" stroke="#4e79a7"/><circle cx="273" cy="240" r="4.08248290463863" stroke="#f28e2c"/><circle cx="446" cy="163" r="4.08248290463863" stroke="#f28e2c"/><circle cx="446" cy="135" r="4.08248290463863" stroke="#f28e2c"/><circle cx="446" cy="240" r="4.08248290463863" stroke="#e15759"/><circle cx="273" cy="188" r="4.08248290463863" stroke="#76b7b2"/><circle cx="99" cy="240" r="4.08248290463863" stroke="#59a14f"/><circle cx="446" cy="240" r="4.08248290463863" stroke="#edc949"/><circle cx="446" cy="240" r="4.08248290463863" stroke="#af7aa1"/><circle cx="446" cy="240" r="4.08248290463863" stroke="#ff9da7"/><circle cx="273" cy="240" r="4.08248290463863" stroke="#9c755f"/><circle cx="99" cy="240" r="4.08248290463863" stroke="#bab0ab"/><circle cx="620" cy="240" r="4.08248290463863" stroke="#4e79a7"/></g></svg>